# xmcd
#
# Track frame offsets: 
#        150
#        12908
#        26341
#        36505
#        54135
#        65266
#        85956
#        101619
#        120168
#        133735
#        147333
#
# Disc length: 2194 seconds
#
# Revision: 3
# Processed by: cddbd v1.5.2PL0 Copyright (c) Steve Scherf et al.
# Submitted via: ExactAudioCopy v0.99pb5
#
DISCID=8908900b
DTITLE=Beatles - Magical Mystery Tour [Mono Box Set]
DYEAR=1967
DGENRE=Rock
TTITLE0=Magical Mystery Tour
TTITLE1=The Fool On The Hill
TTITLE2=Flying
TTITLE3=Blue Jay Way
TTITLE4=Your Mother Should Know
TTITLE5=I Am The Walrus ("No You're Not!" Said Little Nicola)
TTITLE6=Hello Goodbye
TTITLE7=Strawberry Fields Forever
TTITLE8=Penny Lane
TTITLE9=Baby You're A Rich Man
TTITLE10=All You Need Is Love
EXTD=
EXTT0=
EXTT1=
EXTT2=
EXTT3=
EXTT4=
EXTT5=
EXTT6=
EXTT7=
EXTT8=
EXTT9=
EXTT10=
PLAYORDER=
